<?xml version="1.0" encoding="iso-8859-1"?>
<!-- Generator: Adobe Illustrator 19.0.0, SVG Export Plug-In . SVG Version: 6.00 Build 0)  -->
<svg version="1.1" id="Capa_1" xmlns="http://www.w3.org/2000/svg" xmlns:xlink="http://www.w3.org/1999/xlink" x="0px" y="0px"
	 viewBox="0 0 480 480" style="enable-background:new 0 0 480 480;" xml:space="preserve">
<g>
	<g>
		<path d="M392,0H88C65.92,0.026,48.026,17.92,48,40v400c0.026,22.08,17.92,39.974,40,40h304c22.08-0.026,39.974-17.92,40-40V40
			C431.974,17.92,414.08,0.026,392,0z M160,16h160v16H160V16z M384,48v80H96V48H384z M416,440c0,13.255-10.745,24-24,24H88
			c-13.255,0-24-10.745-24-24V40c0-13.255,10.745-24,24-24h56v16H88c-4.418,0-8,3.582-8,8v96c0,4.418,3.582,8,8,8h304
			c4.418,0,8-3.582,8-8V40c0-4.418-3.582-8-8-8h-56V16h56c13.255,0,24,10.745,24,24V440z"/>
	</g>
</g>
<g>
	<g>
		<path d="M240,160c-22.091,0-40,17.909-40,40c0.026,22.08,17.92,39.974,40,40c22.091,0,40-17.909,40-40S262.091,160,240,160z
			 M240,224c-13.255,0-24-10.745-24-24s10.745-24,24-24s24,10.745,24,24S253.255,224,240,224z"/>
	</g>
</g>
<g>
	<g>
		<path d="M344,160c-22.091,0-40,17.909-40,40c0.026,22.08,17.92,39.974,40,40c22.091,0,40-17.909,40-40S366.091,160,344,160z
			 M344,224c-13.255,0-24-10.745-24-24s10.745-24,24-24s24,10.745,24,24S357.255,224,344,224z"/>
	</g>
</g>
<g>
	<g>
		<path d="M136,160c-22.091,0-40,17.909-40,40c0.026,22.08,17.92,39.974,40,40c22.091,0,40-17.909,40-40S158.091,160,136,160z
			 M136,224c-13.255,0-24-10.745-24-24s10.745-24,24-24s24,10.745,24,24S149.255,224,136,224z"/>
	</g>
</g>
<g>
	<g>
		<path d="M240,256c-22.091,0-40,17.909-40,40c0.026,22.08,17.92,39.974,40,40c22.091,0,40-17.909,40-40
			C280,273.909,262.091,256,240,256z M240,320c-13.255,0-24-10.745-24-24s10.745-24,24-24s24,10.745,24,24S253.255,320,240,320z"/>
	</g>
</g>
<g>
	<g>
		<path d="M344,256c-22.091,0-40,17.909-40,40c0.026,22.08,17.92,39.974,40,40c22.091,0,40-17.909,40-40
			C384,273.909,366.091,256,344,256z M344,320c-13.255,0-24-10.745-24-24s10.745-24,24-24s24,10.745,24,24S357.255,320,344,320z"/>
	</g>
</g>
<g>
	<g>
		<path d="M136,256c-22.091,0-40,17.909-40,40c0.026,22.08,17.92,39.974,40,40c22.091,0,40-17.909,40-40
			C176,273.909,158.091,256,136,256z M136,320c-13.255,0-24-10.745-24-24s10.745-24,24-24s24,10.745,24,24S149.255,320,136,320z"/>
	</g>
</g>
<g>
	<g>
		<path d="M240,352c-22.091,0-40,17.909-40,40c0.026,22.08,17.92,39.974,40,40c22.091,0,40-17.909,40-40
			C280,369.909,262.091,352,240,352z M240,416c-13.255,0-24-10.745-24-24s10.745-24,24-24s24,10.745,24,24S253.255,416,240,416z"/>
	</g>
</g>
<g>
	<g>
		<path d="M136,352c-22.091,0-40,17.909-40,40c0.026,22.08,17.92,39.974,40,40c22.091,0,40-17.909,40-40
			C176,369.909,158.091,352,136,352z M136,416c-13.255,0-24-10.745-24-24s10.745-24,24-24s24,10.745,24,24S149.255,416,136,416z"/>
	</g>
</g>
<g>
	<g>
		<path d="M376,352h-64c-4.418,0-8,3.582-8,8v80c0,4.418,3.582,8,8,8h64c4.418,0,8-3.582,8-8v-80C384,355.582,380.418,352,376,352z
			 M368,432h-48v-64h48V432z"/>
	</g>
</g>
<g>
	<g>
		<rect x="320" y="96" width="16" height="16"/>
	</g>
</g>
<g>
	<g>
		<rect x="352" y="96" width="16" height="16"/>
	</g>
</g>
<g>
	<g>
		<polygon points="144,80 144,64 128,64 128,80 112,80 112,96 128,96 128,112 144,112 144,96 160,96 160,80 		"/>
	</g>
</g>
<g>
	<g>
		<path d="M352,408h-8c-4.418,0-8,3.582-8,8s3.582,8,8,8h8c4.418,0,8-3.582,8-8S356.418,408,352,408z"/>
	</g>
</g>
<g>
</g>
<g>
</g>
<g>
</g>
<g>
</g>
<g>
</g>
<g>
</g>
<g>
</g>
<g>
</g>
<g>
</g>
<g>
</g>
<g>
</g>
<g>
</g>
<g>
</g>
<g>
</g>
<g>
</g>
</svg>
